<svg width="48" height="53" viewBox="0 0 48 53" fill="none" xmlns="http://www.w3.org/2000/svg">
<path d="M11.8736 13.0846L17.3445 13.035L15.3938 17.5059H10L11.8736 13.0846Z" fill="#7C50CC"/>
<path d="M0.453547 30.4358L7.56963 16.1753L14.0393 16.1747L7.59876 30.4369L0.453547 30.4358Z" fill="#7C50CC"/>
<path d="M0 53L11.2116 29.1275H17.8448L6.7813 53H0Z" fill="#7C50CC"/>
<path d="M36.4192 45.2769L18.1408 25.3058L22.9821 19.5838L40.194 39.5585L36.4192 45.2769Z" fill="#7C50CC"/>
<path d="M12.3711 26.641H21.0064L26.0881 29.8583L26.0886 24.8153L22.9821 19.5838L15.4741 19.5837L12.3711 26.641Z" fill="#7C50CC"/>
<path d="M27.7896 2.01765e-07L21.0065 15.9776L14.3938 15.9801L21.0082 0L27.7896 2.01765e-07Z" fill="#7C50CC"/>
<path d="M47.8559 29.1158C47.8559 32.1714 45.3788 34.6485 42.3231 34.6485C39.2674 34.6485 36.7903 32.1714 36.7903 29.1158C36.7903 26.0601 39.2674 23.583 42.3231 23.583C45.3788 23.583 47.8559 26.0601 47.8559 29.1158Z" fill="#7C50CC"/>
</svg>
