<svg width="24" height="22" viewBox="0 0 24 22" fill="none" xmlns="http://www.w3.org/2000/svg">
<g id="icon">
<path id="Vector" d="M1 18.3868V20.6267C1 20.7257 1.03933 20.8206 1.10934 20.8907C1.17935 20.9607 1.27431 21 1.37332 21H23.3641C23.4631 21 23.558 20.9607 23.628 20.8907C23.6981 20.8206 23.7374 20.7257 23.7374 20.6267V18.3868C23.7356 17.5402 23.4679 16.7155 22.9723 16.0292C22.4766 15.3429 21.7779 14.8295 20.9749 14.5616C21.6208 14.2691 22.1472 13.7643 22.4663 13.131C22.7854 12.4978 22.8781 11.7744 22.7289 11.0812C22.5796 10.388 22.1975 9.76675 21.6461 9.32093C21.0947 8.87511 20.4072 8.63156 19.6981 8.63082C19.6185 8.63082 19.5413 8.63082 19.4617 8.63082C18.9681 7.83164 18.2098 7.23097 17.3189 6.93348C17.9648 6.63984 18.4907 6.1339 18.8091 5.49983C19.1275 4.86576 19.2192 4.14179 19.069 3.44835C18.9187 2.75491 18.5356 2.13381 17.9833 1.68837C17.4311 1.24293 16.7429 1 16.0334 1C15.3239 1 14.6357 1.24293 14.0835 1.68837C13.5312 2.13381 13.1481 2.75491 12.9978 3.44835C12.8476 4.14179 12.9393 4.86576 13.2577 5.49983C13.5761 6.1339 14.102 6.63984 14.748 6.93348C13.8596 7.23647 13.1057 7.84154 12.6176 8.64327C12.5404 8.64327 12.4608 8.64327 12.3687 8.64327C12.2766 8.64327 12.2144 8.64327 12.1372 8.64327L12.0526 8.51883C11.555 7.78185 10.828 7.22981 9.98445 6.94841C10.6311 6.65548 11.1578 6.14988 11.477 5.51581C11.7962 4.88175 11.8886 4.15747 11.7387 3.46359C11.5889 2.76971 11.2059 2.14809 10.6535 1.70225C10.1011 1.25641 9.41261 1.01324 8.70274 1.01324C7.99286 1.01324 7.3044 1.25641 6.752 1.70225C6.1996 2.14809 5.81659 2.76971 5.66674 3.46359C5.5169 4.15747 5.60926 4.88175 5.92845 5.51581C6.24765 6.14988 6.77441 6.65548 7.42102 6.94841C6.52935 7.24577 5.7702 7.8464 5.2757 8.64575C5.19855 8.64575 5.11891 8.64575 5.03927 8.64575C4.33018 8.6465 3.64272 8.89004 3.0913 9.33587C2.53989 9.78169 2.15777 10.4029 2.00854 11.0961C1.8593 11.7893 1.95196 12.5127 2.27108 13.146C2.59021 13.7792 3.11656 14.284 3.76253 14.5765C2.96186 14.8436 2.26491 15.3547 1.76946 16.0381C1.27402 16.7214 1.00495 17.5427 1 18.3868ZM9.07605 18.3868C9.09963 17.5295 9.45674 16.7153 10.0714 16.1173C10.6861 15.5193 11.5099 15.1847 12.3674 15.1847C13.225 15.1847 14.0488 15.5193 14.6635 16.1173C15.2782 16.7153 15.6353 17.5295 15.6588 18.3868V20.2559H9.07605V18.3868ZM22.9883 18.3868V20.2559H16.408V18.3868C16.4315 17.5295 16.7887 16.7153 17.4033 16.1173C18.018 15.5193 18.8418 15.1847 19.6994 15.1847C20.5569 15.1847 21.3807 15.5193 21.9954 16.1173C22.6101 16.7153 22.9672 17.5295 22.9908 18.3868H22.9883ZM22.0575 11.7343C22.058 12.2011 21.92 12.6575 21.6611 13.0458C21.4021 13.4341 21.0338 13.7369 20.6027 13.9158C20.1717 14.0948 19.6972 14.1419 19.2394 14.0511C18.7815 13.9604 18.3609 13.7359 18.0307 13.406C17.7005 13.0761 17.4755 12.6557 17.3843 12.198C17.293 11.7403 17.3396 11.2658 17.5181 10.8345C17.6966 10.4032 17.999 10.0346 18.3871 9.77525C18.7751 9.51589 19.2314 9.37745 19.6981 9.37745C20.3232 9.37811 20.9226 9.62655 21.3648 10.0683C21.8071 10.5101 22.0562 11.1092 22.0575 11.7343ZM13.6753 4.12117C13.6753 3.65454 13.8137 3.19838 14.0729 2.81039C14.3322 2.42239 14.7006 2.11999 15.1318 1.94142C15.5629 1.76284 16.0373 1.71612 16.4949 1.80716C16.9526 1.89819 17.373 2.1229 17.703 2.45286C18.0329 2.78282 18.2576 3.20322 18.3487 3.66089C18.4397 4.11856 18.393 4.59294 18.2144 5.02406C18.0358 5.45517 17.7334 5.82365 17.3454 6.0829C16.9574 6.34215 16.5013 6.48053 16.0346 6.48053C15.4091 6.47987 14.8094 6.23108 14.3671 5.78876C13.9247 5.34644 13.676 4.74671 13.6753 4.12117ZM16.0346 7.4835C16.5469 7.48241 17.0521 7.60192 17.5096 7.83237C17.967 8.06283 18.3638 8.39774 18.6678 8.81001C18.0824 9.01437 17.5719 9.38963 17.2021 9.88726C16.8323 10.3849 16.6203 10.982 16.5935 11.6014C16.5667 12.2208 16.7263 12.834 17.0517 13.3617C17.3771 13.8894 17.8534 14.3074 18.4189 14.5616C17.8962 14.7375 17.4149 15.0183 17.0045 15.3867C16.5941 15.7552 16.2632 16.2036 16.0322 16.7044C15.8009 16.204 15.4699 15.7561 15.0595 15.3881C14.6491 15.0201 14.1679 14.7397 13.6454 14.564C14.2109 14.3099 14.6872 13.8919 15.0126 13.3642C15.338 12.8365 15.4976 12.2233 15.4708 11.6039C15.444 10.9845 15.232 10.3874 14.8622 9.88975C14.4925 9.39212 13.9819 9.01686 13.3966 8.8125C13.7008 8.39909 14.0982 8.06328 14.5566 7.83236C15.015 7.60143 15.5214 7.48191 16.0346 7.4835ZM14.728 11.7343C14.7285 12.2011 14.5906 12.6575 14.3316 13.0458C14.0727 13.4341 13.7044 13.7369 13.2733 13.9158C12.8422 14.0948 12.3678 14.1419 11.9099 14.0511C11.4521 13.9604 11.0315 13.7359 10.7013 13.406C10.3711 13.0761 10.1461 12.6557 10.0549 12.198C9.96362 11.7403 10.0102 11.2658 10.1887 10.8345C10.3672 10.4032 10.6696 10.0346 11.0576 9.77525C11.4457 9.51589 11.902 9.37745 12.3687 9.37745C12.9938 9.37811 13.5932 9.62655 14.0354 10.0683C14.4777 10.5101 14.7267 11.1092 14.728 11.7343ZM6.34587 4.12117C6.34587 3.65454 6.48425 3.19838 6.7435 2.81039C7.00275 2.42239 7.37123 2.11999 7.80234 1.94142C8.23346 1.76284 8.70784 1.71612 9.16551 1.80716C9.62318 1.89819 10.0436 2.1229 10.3735 2.45286C10.7035 2.78282 10.9282 3.20322 11.0192 3.66089C11.1103 4.11856 11.0636 4.59294 10.885 5.02406C10.7064 5.45517 10.404 5.82365 10.016 6.0829C9.62802 6.34215 9.17186 6.48053 8.70523 6.48053C8.07969 6.47987 7.47996 6.23108 7.03764 5.78876C6.59532 5.34644 6.34653 4.74671 6.34587 4.12117ZM8.70523 7.4835C9.21713 7.48417 9.72179 7.60446 10.179 7.83477C10.6361 8.06508 11.0331 8.39904 11.3383 8.81001C10.754 9.01536 10.2444 9.39102 9.8755 9.88857C9.50655 10.3861 9.29505 10.9828 9.26827 11.6016C9.2415 12.2204 9.40066 12.8331 9.72525 13.3607C10.0498 13.8882 10.525 14.3065 11.0895 14.5616C10.5667 14.7375 10.0854 15.0183 9.67503 15.3867C9.26463 15.7552 8.93377 16.2036 8.70274 16.7044C8.47143 16.204 8.14045 15.7561 7.73006 15.3881C7.31968 15.0201 6.83851 14.7397 6.31601 14.564C6.88048 14.309 7.35563 13.8907 7.68022 13.3632C8.00482 12.8356 8.16398 12.2229 8.1372 11.6041C8.11042 10.9852 7.89893 10.3886 7.52998 9.89105C7.16103 9.39351 6.65152 9.01785 6.06713 8.8125C6.37161 8.39938 6.76911 8.06379 7.22744 7.83289C7.68576 7.602 8.19203 7.48231 8.70523 7.4835ZM2.67992 11.7343C2.67992 11.2677 2.81829 10.8115 3.07754 10.4235C3.33679 10.0355 3.70527 9.73313 4.13639 9.55456C4.5675 9.37599 5.04189 9.32926 5.49956 9.4203C5.95723 9.51133 6.37762 9.73604 6.70758 10.066C7.03755 10.396 7.26225 10.8164 7.35329 11.274C7.44433 11.7317 7.3976 12.2061 7.21903 12.6372C7.04045 13.0683 6.73805 13.4368 6.35006 13.696C5.96206 13.9553 5.50591 14.0937 5.03927 14.0937C4.41373 14.093 3.81401 13.8442 3.37168 13.4019C2.92936 12.9596 2.68058 12.3599 2.67992 11.7343ZM5.03927 15.0966C5.91147 15.098 6.74757 15.445 7.36431 16.0618C7.98104 16.6785 8.32811 17.5146 8.32942 18.3868V20.2559H1.74663V18.3868C1.74795 17.5142 2.09535 16.6777 2.71263 16.0609C3.3299 15.4441 4.16664 15.0973 5.03927 15.0966Z" fill="#8D8E90" stroke="#8D8E90" stroke-width="0.25"/>
</g>
</svg>
