<svg width="24" height="20" viewBox="0 0 24 20" xmlns="http://www.w3.org/2000/svg">
    <g id="icon">
        <path id="Vector" d="M9.85697 2.6391H4.10181V3.40222H9.85697V2.6391Z"/>
        <path id="Vector_2" d="M9.85697 5.11926H4.10181V5.88238H9.85697V5.11926Z"/>
        <path id="Vector_3" d="M9.85697 7.56757H4.10181V8.33068H9.85697V7.56757Z"/>
        <path id="Vector_4" d="M9.85697 10.0477H4.10181V10.8108H9.85697V10.0477Z"/>
        <path id="Vector_5" d="M9.85697 12.496H4.10181V13.2591H9.85697V12.496Z"/>
        <path id="Vector_6" d="M7.24966 14.9761H4.10181V15.7393H7.24966V14.9761Z"/>
        <path id="Vector_7" d="M19.8728 14.9761H14.1177V15.7393H19.8728V14.9761Z"/>
        <path id="Vector_8" d="M19.8728 12.496H14.1177V13.2591H19.8728V12.496Z"/>
        <path id="Vector_9" d="M19.8728 10.0477H14.1177V10.8108H19.8728V10.0477Z"/>
        <path id="Vector_10" d="M19.8728 7.56757H14.1177V8.33068H19.8728V7.56757Z"/>
        <path id="Vector_11" d="M19.8729 5.11926H17.8379V5.88238H19.8729V5.11926Z"/>
        <path id="Vector_12" d="M19.8729 2.6391H17.8379V3.40222H19.8729V2.6391Z"/>
        <path id="Vector_13" d="M16.6932 2.6391H14.1177V5.85055H16.6932V2.6391Z"/>
        <path id="Vector_14" d="M22.3529 0.858505V0H13.6725C12.973 0 12.3688 0.349761 12.0191 0.858505C11.6375 0.349761 11.0334 0 10.3657 0H1.62162V0.858505H0V18.5056C0 19.3005 0.667726 19.9682 1.46264 19.9682H10.4293V19.2051H1.49444C1.11288 19.2051 0.794913 18.8871 0.794913 18.5056V1.62162H1.65342V18.3784H10.3657C11.0652 18.3784 11.6375 18.9507 11.6375 19.6502H12.4006C12.4006 18.9507 12.973 18.3784 13.6725 18.3784H22.3847V1.62162H23.2114V18.5374C23.2114 18.9189 22.8935 19.2369 22.5119 19.2369H13.5135V20H22.4801C23.275 20 23.9428 19.3323 23.9428 18.5374V0.858505H22.3529ZM21.6216 17.6153H13.6725C12.973 17.6153 12.3688 17.965 12.0191 18.4738C11.6375 17.965 11.0334 17.6153 10.3339 17.6153H2.38474V0.763116H10.3339C11.0334 0.763116 11.6057 1.33545 11.6057 2.03498V15.6121H12.3688V2.03498C12.3688 1.33545 12.9412 0.763116 13.6407 0.763116H21.5898V17.6153H21.6216Z"/>
    </g>
</svg>
