<svg width="18" height="24" viewBox="0 0 18 24" xmlns="http://www.w3.org/2000/svg">
    <g id="icon">
        <path id="Vector" fill-rule="evenodd" clip-rule="evenodd" d="M5.10187 3H1.96875C0.883125 3 0 3.88313 0 4.96875V21.2812C0 21.8044 0.208125 22.305 0.579375 22.6706C0.950625 23.0419 1.45125 23.25 1.96875 23.25H16.0312C16.5544 23.25 17.055 23.0419 17.4206 22.6706C17.7919 22.2994 18 21.7987 18 21.2812V4.96875C18 3.88313 17.1169 3 16.0312 3H12.8981C12.1219 1.65562 10.665 0.75 9 0.75C7.335 0.75 5.88375 1.65562 5.10187 3ZM13.3594 4.125C13.4494 4.485 13.5 4.86188 13.5 5.25C13.5 7.73625 11.4862 9.75 9 9.75C6.51375 9.75 4.5 7.73625 4.5 5.25C4.5 4.86188 4.55062 4.485 4.64062 4.125H1.96875C1.50188 4.125 1.125 4.50187 1.125 4.96875V21.2812C1.125 21.5063 1.215 21.72 1.3725 21.8775C1.53 22.035 1.74375 22.125 1.96875 22.125H16.0312C16.2563 22.125 16.47 22.035 16.6275 21.8775C16.785 21.72 16.875 21.5063 16.875 21.2812V4.96875C16.875 4.50187 16.4981 4.125 16.0312 4.125H13.3594ZM3.9375 16.5C3.00375 16.5 2.25 17.2537 2.25 18.1875C2.25 19.1213 3.00375 19.875 3.9375 19.875C4.87125 19.875 5.625 19.1213 5.625 18.1875C5.625 17.2537 4.87125 16.5 3.9375 16.5ZM6.75 18.1875C6.75 19.1213 7.50375 19.875 8.4375 19.875H14.0625C14.9963 19.875 15.75 19.1213 15.75 18.1875C15.75 17.2537 14.9963 16.5 14.0625 16.5H8.4375C7.50375 16.5 6.75 17.2537 6.75 18.1875ZM3.9375 17.625C4.24687 17.625 4.5 17.8781 4.5 18.1875C4.5 18.4969 4.24687 18.75 3.9375 18.75C3.62812 18.75 3.375 18.4969 3.375 18.1875C3.375 17.8781 3.62812 17.625 3.9375 17.625ZM7.875 18.1875C7.875 17.8781 8.12813 17.625 8.4375 17.625H14.0625C14.3719 17.625 14.625 17.8781 14.625 18.1875C14.625 18.4969 14.3719 18.75 14.0625 18.75H8.4375C8.12813 18.75 7.875 18.4969 7.875 18.1875ZM3.9375 11.4375C3.00375 11.4375 2.25 12.1912 2.25 13.125C2.25 14.0588 3.00375 14.8125 3.9375 14.8125C4.87125 14.8125 5.625 14.0588 5.625 13.125C5.625 12.1912 4.87125 11.4375 3.9375 11.4375ZM6.75 13.125C6.75 14.0588 7.50375 14.8125 8.4375 14.8125H14.0625C14.9963 14.8125 15.75 14.0588 15.75 13.125C15.75 12.1912 14.9963 11.4375 14.0625 11.4375H8.4375C7.50375 11.4375 6.75 12.1912 6.75 13.125ZM3.9375 12.5625C4.24687 12.5625 4.5 12.8156 4.5 13.125C4.5 13.4344 4.24687 13.6875 3.9375 13.6875C3.62812 13.6875 3.375 13.4344 3.375 13.125C3.375 12.8156 3.62812 12.5625 3.9375 12.5625ZM7.875 13.125C7.875 12.8156 8.12813 12.5625 8.4375 12.5625H14.0625C14.3719 12.5625 14.625 12.8156 14.625 13.125C14.625 13.4344 14.3719 13.6875 14.0625 13.6875H8.4375C8.12813 13.6875 7.875 13.4344 7.875 13.125ZM10.9237 8.02313C10.53 7.37063 9.81563 6.9375 9 6.9375C8.18437 6.9375 7.47 7.37063 7.07625 8.02313C7.62187 8.40563 8.28563 8.625 9 8.625C9.71437 8.625 10.3781 8.4 10.9237 8.02313ZM11.7394 7.21875C12.1388 6.66187 12.375 5.98688 12.375 5.25C12.375 3.38812 10.8619 1.875 9 1.875C7.13812 1.875 5.625 3.38812 5.625 5.25C5.625 5.98688 5.86125 6.66187 6.26062 7.21875C6.55312 6.81375 6.93 6.47625 7.36875 6.23438C6.98625 5.82937 6.75 5.28375 6.75 4.6875C6.75 3.44438 7.75688 2.4375 9 2.4375C10.2431 2.4375 11.25 3.44438 11.25 4.6875C11.25 5.28375 11.0138 5.82937 10.6312 6.23438C11.07 6.47625 11.4469 6.81375 11.7394 7.21875ZM9 3.5625C9.61875 3.5625 10.125 4.06875 10.125 4.6875C10.125 5.30625 9.61875 5.8125 9 5.8125C8.38125 5.8125 7.875 5.30625 7.875 4.6875C7.875 4.06875 8.38125 3.5625 9 3.5625Z"/>
    </g>
</svg>
