<svg width="20" height="20" viewBox="0 0 20 20" fill="none" xmlns="http://www.w3.org/2000/svg">
<path d="M18.6155 8.60266H12.4616C12.0368 8.60266 11.6924 8.94706 11.6924 9.37189V18.6027C11.6924 19.0274 12.0368 19.3719 12.4616 19.3719H18.6155C19.0402 19.3719 19.3847 19.0274 19.3847 18.6027V9.37189C19.3847 8.94706 19.0402 8.60266 18.6155 8.60266Z" stroke="#8D8E90" stroke-linecap="round" stroke-linejoin="round"/>
<path d="M18.6155 0.628113H12.4616C12.0368 0.628113 11.6924 0.97251 11.6924 1.39734V4.48965C11.6924 4.91448 12.0368 5.25888 12.4616 5.25888H18.6155C19.0402 5.25888 19.3847 4.91448 19.3847 4.48965V1.39734C19.3847 0.97251 19.0402 0.628113 18.6155 0.628113Z" stroke="#8D8E90" stroke-linecap="round" stroke-linejoin="round"/>
<path d="M7.92308 0.690613H1.76923C1.3444 0.690613 1 1.03501 1 1.45984V10.6906C1 11.1154 1.3444 11.4598 1.76923 11.4598H7.92308C8.34791 11.4598 8.69231 11.1154 8.69231 10.6906V1.45984C8.69231 1.03501 8.34791 0.690613 7.92308 0.690613Z" stroke="#8D8E90" stroke-linecap="round" stroke-linejoin="round"/>
<path d="M7.92308 14.5848H1.76923C1.3444 14.5848 1 14.9291 1 15.3541V18.4464C1 18.8711 1.3444 19.2156 1.76923 19.2156H7.92308C8.34791 19.2156 8.69231 18.8711 8.69231 18.4464V15.3541C8.69231 14.9291 8.34791 14.5848 7.92308 14.5848Z" stroke="#8D8E90" stroke-linecap="round" stroke-linejoin="round"/>
</svg>
