<svg width="22" height="22" viewBox="0 0 22 22" fill="none" xmlns="http://www.w3.org/2000/svg">
<g id="icon">
<path id="Vector" d="M5.26598 17.7822C5.60883 17.4669 5.82759 17.0188 5.82759 16.5172C5.82759 15.5663 5.05408 14.7931 4.10345 14.7931C3.15282 14.7931 2.37931 15.5663 2.37931 16.5172C2.37931 17.0188 2.59807 17.4669 2.94092 17.7822C1.80486 18.2436 1 19.3554 1 20.6552C1 20.8458 1.15423 21 1.34483 21H6.86207C7.05267 21 7.2069 20.8458 7.2069 20.6552C7.2069 19.3554 6.40203 18.2436 5.26598 17.7822ZM3.06897 16.5172C3.06897 15.9468 3.533 15.4828 4.10345 15.4828C4.6739 15.4828 5.13793 15.9468 5.13793 16.5172C5.13793 17.0877 4.6739 17.5517 4.10345 17.5517C3.533 17.5517 3.06897 17.0877 3.06897 16.5172ZM1.71424 20.3103C1.88194 19.1418 2.88948 18.2414 4.10345 18.2414C5.31742 18.2414 6.32496 19.1418 6.49266 20.3103H1.71424Z" fill="#8D8E90" stroke="#8D8E90" stroke-width="0.25"/>
<path id="Vector_2" d="M19.0591 17.7822C19.4019 17.4669 19.6207 17.0188 19.6207 16.5172C19.6207 15.5663 18.8472 14.7931 17.8965 14.7931C16.9459 14.7931 16.1724 15.5663 16.1724 16.5172C16.1724 17.0188 16.3912 17.4669 16.734 17.7822C15.598 18.2436 14.7931 19.3554 14.7931 20.6552C14.7931 20.8458 14.9473 21 15.1379 21H20.6552C20.8458 21 21 20.8458 21 20.6552C21 19.3554 20.1951 18.2436 19.0591 17.7822ZM16.8621 16.5172C16.8621 15.9468 17.3261 15.4828 17.8965 15.4828C18.467 15.4828 18.931 15.9468 18.931 16.5172C18.931 17.0877 18.467 17.5517 17.8965 17.5517C17.3261 17.5517 16.8621 17.0877 16.8621 16.5172ZM15.5073 20.3103C15.675 19.1418 16.6826 18.2414 17.8965 18.2414C19.1105 18.2414 20.1181 19.1418 20.2857 20.3103H15.5073Z" fill="#8D8E90" stroke="#8D8E90" stroke-width="0.25"/>
<path id="Vector_3" d="M1.34483 7.2069H6.86207C7.05267 7.2069 7.2069 7.05267 7.2069 6.86207C7.2069 5.56227 6.40203 4.45051 5.26598 3.98908C5.60883 3.6738 5.82759 3.22572 5.82759 2.72414C5.82759 1.77317 5.05408 1 4.10345 1C3.15282 1 2.37931 1.77317 2.37931 2.72414C2.37931 3.22572 2.59807 3.6738 2.94092 3.98908C1.80486 4.45051 1 5.56227 1 6.86207C1 7.05267 1.15423 7.2069 1.34483 7.2069ZM3.06897 2.72414C3.06897 2.15369 3.533 1.68966 4.10345 1.68966C4.6739 1.68966 5.13793 2.15369 5.13793 2.72414C5.13793 3.29459 4.6739 3.75862 4.10345 3.75862C3.533 3.75862 3.06897 3.29459 3.06897 2.72414ZM4.10345 4.44828C5.31742 4.44828 6.32496 5.34873 6.49266 6.51724H1.71424C1.88194 5.34873 2.88948 4.44828 4.10345 4.44828Z" fill="#8D8E90" stroke="#8D8E90" stroke-width="0.25"/>
<path id="Vector_4" d="M19.0591 3.98908C19.4019 3.6738 19.6207 3.22572 19.6207 2.72414C19.6207 1.77317 18.8472 1 17.8965 1C16.9459 1 16.1724 1.77317 16.1724 2.72414C16.1724 3.22572 16.3912 3.6738 16.734 3.98908C15.598 4.45051 14.7931 5.56227 14.7931 6.86207C14.7931 7.05267 14.9473 7.2069 15.1379 7.2069H20.6552C20.8458 7.2069 21 7.05267 21 6.86207C21 5.56227 20.1951 4.45051 19.0591 3.98908ZM16.8621 2.72414C16.8621 2.15369 17.3261 1.68966 17.8965 1.68966C18.467 1.68966 18.931 2.15369 18.931 2.72414C18.931 3.29459 18.467 3.75862 17.8965 3.75862C17.3261 3.75862 16.8621 3.29459 16.8621 2.72414ZM15.5073 6.51724C15.675 5.34873 16.6826 4.44828 17.8965 4.44828C19.1105 4.44828 20.1181 5.34873 20.2857 6.51724H15.5073Z" fill="#8D8E90" stroke="#8D8E90" stroke-width="0.25"/>
<path id="Vector_5" d="M3.3097 7.91608C3.12954 7.8521 2.93322 7.94707 2.86957 8.12621C2.54428 9.04755 2.37927 10.0147 2.37927 11C2.37927 11.9853 2.54428 12.9525 2.86957 13.8738C2.91975 14.0152 3.05276 14.1034 3.19487 14.1034C3.23292 14.1034 3.27165 14.0974 3.3097 14.0839C3.48919 14.0206 3.58347 13.8233 3.52017 13.6435C3.2208 12.7962 3.06893 11.9072 3.06893 11C3.06893 10.0928 3.2208 9.2038 3.52017 8.35655C3.58347 8.17673 3.48919 7.97939 3.3097 7.91608Z" fill="#8D8E90" stroke="#8D8E90" stroke-width="0.25"/>
<path id="Vector_6" d="M14.7617 18.3821C14.6823 18.2097 14.4779 18.1329 14.3044 18.2124C12.2247 19.1661 9.77521 19.1661 7.69547 18.2124C7.52238 18.1329 7.31798 18.2097 7.23817 18.3821C7.15869 18.5552 7.2348 18.7593 7.40789 18.8388C8.53834 19.358 9.74692 19.6207 11 19.6207C12.253 19.6207 13.4616 19.358 14.592 18.8388C14.7651 18.7593 14.8412 18.5552 14.7617 18.3821Z" fill="#8D8E90" stroke="#8D8E90" stroke-width="0.25"/>
<path id="Vector_7" d="M18.6903 14.0839C18.7284 14.0974 18.7671 14.1034 18.8052 14.1034C18.9473 14.1034 19.0803 14.0152 19.1305 13.8738C19.4558 12.9525 19.6208 11.9853 19.6208 11C19.6208 10.014 19.4558 9.04755 19.1298 8.12621C19.0668 7.94706 18.8692 7.85278 18.69 7.91608C18.5102 7.98007 18.4162 8.17673 18.4799 8.35655C18.7792 9.20313 18.9311 10.0928 18.9311 11C18.9311 11.9072 18.7792 12.7962 18.4799 13.6435C18.4166 13.8233 18.5109 14.0206 18.6903 14.0839Z" fill="#8D8E90" stroke="#8D8E90" stroke-width="0.25"/>
<path id="Vector_8" d="M14.3048 3.7896C14.3513 3.81048 14.4001 3.82058 14.448 3.82058C14.579 3.82058 14.7039 3.74582 14.7618 3.61921C14.8409 3.44612 14.7648 3.24138 14.5918 3.16191C13.8893 2.84133 13.1609 2.6184 12.4272 2.50054C12.2393 2.47225 12.0625 2.5982 12.0322 2.78677C12.0018 2.97468 12.1298 3.15181 12.318 3.18211C12.9905 3.28987 13.659 3.49394 14.3048 3.7896Z" fill="#8D8E90" stroke="#8D8E90" stroke-width="0.25"/>
<path id="Vector_9" d="M7.55205 3.82058C7.59987 3.82058 7.6487 3.81048 7.69517 3.7896C8.34105 3.49394 9.00949 3.28987 9.68197 3.18211C9.87021 3.15181 9.99817 2.97468 9.96787 2.78677C9.93756 2.5982 9.76144 2.47225 9.57286 2.50054C8.83909 2.6184 8.11071 2.84133 7.40826 3.16191C7.23517 3.24138 7.15907 3.44612 7.23821 3.61921C7.29613 3.74582 7.42106 3.82058 7.55205 3.82058Z" fill="#8D8E90" stroke="#8D8E90" stroke-width="0.25"/>
<path id="Vector_10" d="M10.9999 12.7241C11.0882 12.7241 11.1764 12.6905 11.2437 12.6231L11.8324 12.0345H13.7586C13.9492 12.0345 14.1034 11.8803 14.1034 11.6897V7.55173C14.1034 7.36113 13.9492 7.2069 13.7586 7.2069H8.24131C8.05071 7.2069 7.89648 7.36113 7.89648 7.55173V11.6897C7.89648 11.8803 8.05071 12.0345 8.24131 12.0345H10.1675L10.7561 12.6231C10.8235 12.6905 10.9117 12.7241 10.9999 12.7241ZM10.3103 11.3448H8.58614V7.89655H13.4137V11.3448H11.6896C11.598 11.3448 11.5104 11.3812 11.4458 11.4459L10.9999 11.8917L10.5541 11.4459C10.4894 11.3812 10.4019 11.3448 10.3103 11.3448Z" fill="#8D8E90" stroke="#8D8E90" stroke-width="0.25"/>
<path id="Vector_11" d="M6.86212 9.96552C7.05272 9.96552 7.20695 9.81129 7.20695 9.62069C7.20695 9.43009 7.05272 9.27586 6.86212 9.27586H6.17246C5.98187 9.27586 5.82764 9.43009 5.82764 9.62069V13.7586C5.82764 13.9492 5.98187 14.1034 6.17246 14.1034H8.09865L8.68728 14.6921C8.75463 14.7594 8.84286 14.7931 8.93109 14.7931C9.01931 14.7931 9.10754 14.7594 9.17489 14.6921L9.76352 14.1034H10.3104C10.501 14.1034 10.6552 13.9492 10.6552 13.7586C10.6552 13.568 10.501 13.4138 10.3104 13.4138H9.62074C9.52915 13.4138 9.44159 13.4502 9.37694 13.5148L8.93109 13.9607L8.48523 13.5148C8.42058 13.4502 8.33302 13.4138 8.24143 13.4138H6.51729V9.96552H6.86212Z" fill="#8D8E90" stroke="#8D8E90" stroke-width="0.25"/>
<path id="Vector_12" d="M11.6897 14.1034H12.2366L12.8252 14.6921C12.8925 14.7594 12.9808 14.7931 13.069 14.7931C13.1572 14.7931 13.2454 14.7594 13.3128 14.6921L13.9014 14.1034H15.8276C16.0182 14.1034 16.1724 13.9492 16.1724 13.7586V9.62069C16.1724 9.43009 16.0182 9.27586 15.8276 9.27586H15.138C14.9474 9.27586 14.7931 9.43009 14.7931 9.62069C14.7931 9.81129 14.9474 9.96552 15.138 9.96552H15.4828V13.4138H13.7586C13.667 13.4138 13.5795 13.4502 13.5148 13.5148L13.069 13.9607L12.6231 13.5148C12.5585 13.4502 12.4709 13.4138 12.3793 13.4138H11.6897C11.4991 13.4138 11.3448 13.568 11.3448 13.7586C11.3448 13.9492 11.4991 14.1034 11.6897 14.1034Z" fill="#8D8E90" stroke="#8D8E90" stroke-width="0.25"/>
<path id="Vector_13" d="M11 3.06897C11.1904 3.06897 11.3448 2.91458 11.3448 2.72414C11.3448 2.5337 11.1904 2.37931 11 2.37931C10.8095 2.37931 10.6552 2.5337 10.6552 2.72414C10.6552 2.91458 10.8095 3.06897 11 3.06897Z" fill="#8D8E90" stroke="#8D8E90" stroke-width="0.25"/>
</g>
</svg>
