<svg width="20" height="22" viewBox="0 0 20 22" fill="none" xmlns="http://www.w3.org/2000/svg">
<g id="icon">
<g id="Group 30">
<g id="Vector">
<path d="M13.1002 21V17.67L13.9977 17.8121C14.3862 17.8757 14.7841 17.8543 15.1633 17.7492C15.5426 17.6442 15.8939 17.4581 16.1926 17.2041C16.4913 16.95 16.73 16.6342 16.8919 16.279C17.0537 15.9237 17.1349 15.5377 17.1296 15.148V13.0079L17.9822 12.7771C18.1916 12.725 18.3851 12.6238 18.5467 12.4821C18.7083 12.3404 18.833 12.1624 18.9104 11.963C18.9878 11.7636 19.0157 11.5488 18.9916 11.3365C18.9675 11.1243 18.8922 10.9209 18.772 10.7435L17.1746 8.337V7.67987C17.1746 3.74598 13.154 0.575793 8.37075 1.04644C6.66127 1.19489 5.04402 1.87823 3.75346 2.99739C2.4629 4.11653 1.56612 5.61332 1.19312 7.27074C0.820115 8.92815 0.990293 10.66 1.67897 12.2153C2.36765 13.7706 3.53904 15.0684 5.0233 15.9206V21" stroke="#8D8E90" stroke-width="1.5" stroke-linecap="round" stroke-linejoin="round"/>
<path d="M13.1002 21V17.67L13.9977 17.8121C14.3862 17.8757 14.7841 17.8543 15.1633 17.7492C15.5426 17.6442 15.8939 17.4581 16.1926 17.2041C16.4913 16.95 16.73 16.6342 16.8919 16.279C17.0537 15.9237 17.1349 15.5377 17.1296 15.148V13.0079L17.9822 12.7771C18.1916 12.725 18.3851 12.6238 18.5467 12.4821C18.7083 12.3404 18.833 12.1624 18.9104 11.963C18.9878 11.7636 19.0157 11.5488 18.9916 11.3365C18.9675 11.1243 18.8922 10.9209 18.772 10.7435L17.1746 8.337V7.67987C17.1746 3.74598 13.154 0.575793 8.37075 1.04644C6.66127 1.19489 5.04402 1.87823 3.75346 2.99739C2.4629 4.11653 1.56612 5.61332 1.19312 7.27074C0.820115 8.92815 0.990293 10.66 1.67897 12.2153C2.36765 13.7706 3.53904 15.0684 5.0233 15.9206V21" stroke="#8D8E90" stroke-width="1.5" stroke-linecap="round" stroke-linejoin="round"/>
</g>
<g id="Vector_2">
<path d="M13.7859 8.02428C13.7944 7.78563 13.7541 7.54775 13.6676 7.32483C13.5811 7.10191 13.4501 6.89851 13.2824 6.72678C13.1148 6.55506 12.9138 6.41851 12.6917 6.32531C12.4694 6.2321 12.2306 6.18413 11.9893 6.18428C11.6692 6.18812 11.3571 6.28385 11.091 6.45984C11.0957 6.36804 11.0957 6.27607 11.091 6.18428C11.1509 5.92393 11.1508 5.65355 11.0907 5.39323C11.0306 5.13291 10.912 4.88934 10.7437 4.68059C10.5754 4.47186 10.3618 4.30331 10.1186 4.18747C9.87545 4.07163 9.6091 4.01147 9.33924 4.01147C9.06939 4.01147 8.80294 4.07163 8.55986 4.18747C8.31668 4.30331 8.10303 4.47186 7.93473 4.68059C7.76644 4.88934 7.64784 5.13291 7.58772 5.39323C7.52761 5.65355 7.52753 5.92393 7.5875 6.18428C7.57819 6.2759 7.57819 6.36821 7.5875 6.45984C7.32046 6.28567 7.00894 6.19011 6.68918 6.18428C6.22534 6.21847 5.79298 6.42932 5.48304 6.77248C5.17309 7.11564 5.00972 7.56437 5.02728 8.02428C5.01258 8.48991 5.18318 8.94266 5.50238 9.28508C5.82158 9.62757 6.26387 9.83228 6.73409 9.8554C6.54142 10.0326 6.38774 10.2471 6.28263 10.4857C6.17753 10.7243 6.12326 10.9818 6.12324 11.2421C6.11479 11.4807 6.15502 11.7186 6.24152 11.9415C6.32802 12.1645 6.45902 12.3678 6.6267 12.5396C6.79438 12.7113 6.99531 12.8478 7.21749 12.941C7.43967 13.0342 7.67855 13.0822 7.91988 13.0821C8.24158 13.0775 8.55564 12.9845 8.82693 12.8134C9.09822 12.6422 9.31597 12.3998 9.45602 12.1132C9.59598 12.3998 9.81382 12.6422 10.0851 12.8134C10.3564 12.9845 10.6705 13.0775 10.9922 13.0821C11.4639 13.059 11.9076 12.853 12.2271 12.5086C12.5465 12.1642 12.716 11.7092 12.699 11.2421C12.6989 10.9818 12.6446 10.7243 12.5395 10.4857C12.4344 10.2471 12.2808 10.0326 12.0881 9.8554C12.5568 9.83006 12.9968 9.62428 13.314 9.28215C13.6313 8.93992 13.8007 8.48845 13.7859 8.02428Z" stroke="#8D8E90" stroke-width="1.5" stroke-linecap="round" stroke-linejoin="round"/>
<path d="M13.7859 8.02428C13.7944 7.78563 13.7541 7.54775 13.6676 7.32483C13.5811 7.10191 13.4501 6.89851 13.2824 6.72678C13.1148 6.55506 12.9138 6.41851 12.6917 6.32531C12.4694 6.2321 12.2306 6.18413 11.9893 6.18428C11.6692 6.18812 11.3571 6.28385 11.091 6.45984C11.0957 6.36804 11.0957 6.27607 11.091 6.18428C11.1509 5.92393 11.1508 5.65355 11.0907 5.39323C11.0306 5.13291 10.912 4.88934 10.7437 4.68059C10.5754 4.47186 10.3618 4.30331 10.1186 4.18747C9.87545 4.07163 9.6091 4.01147 9.33924 4.01147C9.06939 4.01147 8.80294 4.07163 8.55986 4.18747C8.31668 4.30331 8.10303 4.47186 7.93473 4.68059C7.76644 4.88934 7.64784 5.13291 7.58772 5.39323C7.52761 5.65355 7.52753 5.92393 7.5875 6.18428C7.57819 6.2759 7.57819 6.36821 7.5875 6.45984C7.32046 6.28567 7.00894 6.19011 6.68918 6.18428C6.22534 6.21847 5.79298 6.42932 5.48304 6.77248C5.17309 7.11564 5.00972 7.56437 5.02728 8.02428C5.01258 8.48991 5.18318 8.94266 5.50238 9.28508C5.82158 9.62757 6.26387 9.83228 6.73409 9.8554C6.54142 10.0326 6.38774 10.2471 6.28263 10.4857C6.17753 10.7243 6.12326 10.9818 6.12324 11.2421C6.11479 11.4807 6.15502 11.7186 6.24152 11.9415C6.32802 12.1645 6.45902 12.3678 6.6267 12.5396C6.79438 12.7113 6.99531 12.8478 7.21749 12.941C7.43967 13.0342 7.67855 13.0822 7.91988 13.0821C8.24158 13.0775 8.55564 12.9845 8.82693 12.8134C9.09822 12.6422 9.31597 12.3998 9.45602 12.1132C9.59598 12.3998 9.81382 12.6422 10.0851 12.8134C10.3564 12.9845 10.6705 13.0775 10.9922 13.0821C11.4639 13.059 11.9076 12.853 12.2271 12.5086C12.5465 12.1642 12.716 11.7092 12.699 11.2421C12.6989 10.9818 12.6446 10.7243 12.5395 10.4857C12.4344 10.2471 12.2808 10.0326 12.0881 9.8554C12.5568 9.83006 12.9968 9.62428 13.314 9.28215C13.6313 8.93992 13.8007 8.48845 13.7859 8.02428Z" stroke="#8D8E90" stroke-width="1.5" stroke-linecap="round" stroke-linejoin="round"/>
</g>
<g id="Vector_3">
<path d="M9.44258 8.99632C9.25654 8.99632 9.10571 8.84707 9.10571 8.66298C9.10571 8.47889 9.25654 8.32965 9.44258 8.32965" stroke="#8D8E90" stroke-width="1.5"/>
<path d="M9.44258 8.99632C9.25654 8.99632 9.10571 8.84707 9.10571 8.66298C9.10571 8.47889 9.25654 8.32965 9.44258 8.32965" stroke="#8D8E90" stroke-width="1.5"/>
</g>
<g id="Vector_4">
<path d="M9.4425 8.99632C9.62855 8.99632 9.77938 8.84707 9.77938 8.66298C9.77938 8.47889 9.62855 8.32965 9.4425 8.32965" stroke="#8D8E90" stroke-width="1.5"/>
<path d="M9.4425 8.99632C9.62855 8.99632 9.77938 8.84707 9.77938 8.66298C9.77938 8.47889 9.62855 8.32965 9.4425 8.32965" stroke="#8D8E90" stroke-width="1.5"/>
</g>
</g>
</g>
</svg>
