<svg width="22" height="22" viewBox="0 0 22 22" fill="none" xmlns="http://www.w3.org/2000/svg">
<g id="icon">
<path id="Vector" d="M10.998 14.709C9.26376 14.709 7.85266 16.1201 7.85266 17.8544C7.85266 19.5889 9.26376 21 10.998 21C12.7326 21 14.1437 19.5889 14.1437 17.8544C14.1437 16.1201 12.7326 14.709 10.998 14.709ZM9.42399 19.9758C9.45501 19.3072 9.89232 18.7346 10.5384 18.5386C10.6346 18.5093 10.7042 18.4251 10.7144 18.3247C10.7247 18.2247 10.6736 18.128 10.5853 18.0799C10.2819 17.9147 10.0934 17.5978 10.0934 17.2529C10.0934 16.734 10.5155 16.3119 11.0344 16.3119C11.5534 16.3119 11.9754 16.734 11.9754 17.2529C11.9754 17.6081 11.7779 17.9293 11.4601 18.0909C11.37 18.1368 11.3166 18.232 11.3242 18.3325C11.3317 18.4331 11.3991 18.5193 11.4948 18.551C12.1188 18.7579 12.5416 19.3251 12.5724 19.9758C12.1319 20.3036 11.5882 20.5001 10.998 20.5001C10.4081 20.5001 9.86448 20.3036 9.42399 19.9758ZM13.0172 19.5603C12.8858 19.0176 12.5431 18.5487 12.0616 18.263C12.3235 17.9984 12.4753 17.6388 12.4753 17.2529C12.4753 16.4584 11.8289 15.812 11.0344 15.812C10.2399 15.812 9.59353 16.4584 9.59353 17.2529C9.59353 17.6232 9.73535 17.9723 9.98018 18.2352C9.47316 18.5171 9.11368 18.9972 8.97903 19.5601C8.58898 19.0991 8.35256 18.5042 8.35256 17.8544C8.35256 16.3957 9.53934 15.2089 10.998 15.2089C12.457 15.2089 13.6438 16.3957 13.6438 17.8544C13.6438 18.5043 13.4073 19.0992 13.0172 19.5603Z" fill="#8D8E90" stroke="#8D8E90" stroke-width="0.25"/>
<path id="Vector_2" d="M4.14563 14.709C2.4111 14.709 1 16.1201 1 17.8544C1 19.5889 2.4111 21 4.14563 21C5.87991 21 7.29101 19.5889 7.29101 17.8544C7.29101 16.1201 5.87991 14.709 4.14563 14.709ZM2.57133 19.9758C2.60238 19.3072 3.0399 18.7346 3.68575 18.5386C3.78217 18.5093 3.85174 18.4251 3.86199 18.3247C3.87224 18.2247 3.82123 18.128 3.73286 18.0799C3.42921 17.9147 3.24077 17.5978 3.24077 17.2529C3.24077 16.734 3.66281 16.3119 4.18175 16.3119C4.70069 16.3119 5.12273 16.734 5.12273 17.2529C5.12273 17.6081 4.92526 17.9293 4.60745 18.0909C4.51738 18.1368 4.46392 18.232 4.47149 18.3325C4.47906 18.4331 4.54643 18.5193 4.64211 18.551C5.2662 18.7579 5.68898 19.3251 5.71972 19.9758C5.27922 20.3036 4.73561 20.5001 4.14563 20.5001C3.55555 20.5001 3.01186 20.3036 2.57133 19.9758ZM6.16452 19.5603C6.03318 19.0176 5.69049 18.5487 5.20889 18.263C5.47081 17.9984 5.62263 17.6388 5.62263 17.2529C5.62263 16.4584 4.97627 15.812 4.18175 15.812C3.38723 15.812 2.74087 16.4584 2.74087 17.2529C2.74087 17.6232 2.88269 17.9723 3.12751 18.2352C2.62053 18.517 2.26105 18.9973 2.12638 19.5601C1.73632 19.0991 1.4999 18.5042 1.4999 17.8544C1.4999 16.3957 2.68668 15.2089 4.14563 15.2089C5.60433 15.2089 6.79111 16.3957 6.79111 17.8544C6.79111 18.5043 6.55463 19.0992 6.16452 19.5603Z" fill="#8D8E90" stroke="#8D8E90" stroke-width="0.25"/>
<path id="Vector_3" d="M17.8505 14.709C16.1162 14.709 14.7051 16.1201 14.7051 17.8544C14.7051 19.5889 16.1162 21 17.8505 21C19.585 21 20.9961 19.5889 20.9961 17.8544C20.9961 16.1201 19.585 14.709 17.8505 14.709ZM16.2764 19.9758C16.3075 19.3072 16.745 18.7346 17.3908 18.5386C17.4872 18.5093 17.5568 18.4251 17.5671 18.3247C17.5773 18.2247 17.5263 18.128 17.4379 18.0799C17.1343 17.9147 16.9459 17.5978 16.9459 17.2529C16.9459 16.734 17.3679 16.3119 17.8868 16.3119C18.4058 16.3119 18.8278 16.734 18.8278 17.2529C18.8278 17.6081 18.6303 17.9293 18.3125 18.0909C18.2225 18.1368 18.169 18.232 18.1766 18.3325C18.1841 18.4331 18.2515 18.5193 18.3472 18.551C18.9713 18.7579 19.394 19.3251 19.4248 19.9758C18.9843 20.3036 18.4406 20.5001 17.8505 20.5001C17.2605 20.5001 16.7169 20.3036 16.2764 19.9758ZM19.8696 19.5603C19.7382 19.0176 19.3956 18.5487 18.914 18.263C19.1759 17.9984 19.3277 17.6388 19.3277 17.2529C19.3277 16.4584 18.6814 15.812 17.8868 15.812C17.0923 15.812 16.4459 16.4584 16.4459 17.2529C16.4459 17.6232 16.5878 17.9723 16.8326 18.2352C16.3256 18.517 15.9661 18.9973 15.8314 19.5601C15.4414 19.0991 15.205 18.5042 15.205 17.8544C15.205 16.3957 16.3918 15.2089 17.8505 15.2089C19.3094 15.2089 20.4962 16.3957 20.4962 17.8544C20.4962 18.5043 20.2597 19.0992 19.8696 19.5603Z" fill="#8D8E90" stroke="#8D8E90" stroke-width="0.25"/>
<path id="Vector_4" d="M6.32044 11.5426V7.42819C6.32044 6.22677 5.34309 5.24942 4.14166 5.24942C2.94024 5.24942 1.96289 6.22677 1.96289 7.42819V11.5426C1.96289 12.7441 2.94024 13.7214 4.14166 13.7214C5.34309 13.7214 6.32044 12.7441 6.32044 11.5426ZM2.46279 11.5426V7.42819C2.46279 6.50235 3.21582 5.74932 4.14166 5.74932C5.06751 5.74932 5.82054 6.50235 5.82054 7.42819V11.5426C5.82054 12.4685 5.06751 13.2215 4.14166 13.2215C3.21582 13.2215 2.46279 12.4685 2.46279 11.5426Z" fill="#8D8E90" stroke="#8D8E90" stroke-width="0.25"/>
<path id="Vector_5" d="M13.1768 11.5426V3.17877C13.1768 1.97735 12.1994 1 10.998 1C9.79656 1 8.81921 1.97735 8.81921 3.17877V11.5426C8.81921 12.744 9.79656 13.7214 10.998 13.7214C12.1994 13.7214 13.1768 12.744 13.1768 11.5426ZM9.31912 11.5426V3.17877C9.31912 2.25293 10.0721 1.4999 10.998 1.4999C11.9238 1.4999 12.6769 2.25293 12.6769 3.17877V11.5426C12.6769 12.4685 11.9238 13.2215 10.998 13.2215C10.0721 13.2215 9.31912 12.4685 9.31912 11.5426Z" fill="#8D8E90" stroke="#8D8E90" stroke-width="0.25"/>
<path id="Vector_6" d="M20.0332 11.5426V4.70874C20.0332 3.50732 19.0559 2.52997 17.8544 2.52997C16.653 2.52997 15.6757 3.50756 15.6757 4.70899V11.5426C15.6757 12.744 16.653 13.7214 17.8544 13.7214C19.0559 13.7214 20.0332 12.744 20.0332 11.5426ZM16.1756 11.5426V4.70899C16.1756 3.78314 16.9286 3.02987 17.8544 3.02987C18.7803 3.02987 19.5333 3.7829 19.5333 4.70874V11.5426C19.5333 12.4685 18.7803 13.2215 17.8544 13.2215C16.9286 13.2215 16.1756 12.4685 16.1756 11.5426Z" fill="#8D8E90" stroke="#8D8E90" stroke-width="0.25"/>
</g>
</svg>
