<svg width="20" height="18" viewBox="0 0 20 18" fill="none" xmlns="http://www.w3.org/2000/svg">
<g id="icon">
<path id="Vector" d="M0.494721 0.94499C0.356699 0.960157 0.229364 1.02648 0.137814 1.13087C0.0462648 1.23527 -0.00285777 1.37018 0.00012859 1.509V16.503C0.000143316 16.6502 0.0586561 16.7915 0.162798 16.8956C0.26694 16.9998 0.408182 17.0583 0.555461 17.0583H19.4368C19.5103 17.0593 19.5834 17.0457 19.6517 17.0183C19.72 16.9909 19.7821 16.9501 19.8345 16.8985C19.8869 16.8468 19.9286 16.7852 19.957 16.7173C19.9854 16.6494 20 16.5766 20 16.503C20 16.4294 19.9854 16.3565 19.957 16.2886C19.9286 16.2207 19.8869 16.1592 19.8345 16.1075C19.7821 16.0558 19.72 16.0151 19.6517 15.9876C19.5834 15.9602 19.5103 15.9466 19.4368 15.9476H1.11079V1.509C1.1125 1.42994 1.0973 1.35144 1.06622 1.27873C1.03513 1.20602 0.988885 1.14079 0.930562 1.08739C0.872238 1.034 0.803186 0.993673 0.728023 0.969115C0.65286 0.944557 0.573319 0.936332 0.494721 0.94499ZM14.942 5.11866C14.8691 5.12206 14.7975 5.1398 14.7315 5.17086C14.6654 5.20192 14.6061 5.2457 14.5569 5.29968C14.5077 5.35367 14.4697 5.41681 14.4449 5.4855C14.4202 5.55419 14.4092 5.62709 14.4126 5.70003C14.416 5.77296 14.4338 5.84451 14.4649 5.91059C14.4959 5.97666 14.5397 6.03597 14.5937 6.08512C14.6477 6.13427 14.7109 6.1723 14.7796 6.19705C14.8483 6.22179 14.9212 6.23276 14.9941 6.22932H17.7708V9.00598C17.7697 9.07957 17.7833 9.15263 17.8108 9.22092C17.8382 9.28921 17.8789 9.35136 17.9306 9.40377C17.9823 9.45618 18.0438 9.49779 18.1117 9.52619C18.1796 9.5546 18.2525 9.56923 18.3261 9.56923C18.3997 9.56923 18.4726 9.5546 18.5404 9.52619C18.6083 9.49779 18.6699 9.45618 18.7216 9.40377C18.7732 9.35136 18.814 9.28921 18.8414 9.22092C18.8689 9.15263 18.8825 9.07957 18.8814 9.00598V5.67399C18.8814 5.52671 18.8229 5.38547 18.7188 5.28133C18.6146 5.17719 18.4734 5.11867 18.3261 5.11866H14.9941C14.9768 5.11785 14.9594 5.11785 14.942 5.11866ZM16.2436 7.06232C16.0992 7.05885 15.9592 7.11176 15.8531 7.20983L11.9311 10.7588L8.13922 7.47014C8.03652 7.38108 7.90472 7.33277 7.76879 7.33436C7.63286 7.33596 7.50224 7.38736 7.40167 7.47882L2.40368 11.9215C2.34919 11.9704 2.3049 12.0296 2.27334 12.0956C2.24179 12.1617 2.22359 12.2333 2.2198 12.3064C2.216 12.3796 2.22669 12.4527 2.25124 12.5217C2.27579 12.5906 2.31372 12.6541 2.36285 12.7084C2.41198 12.7626 2.47135 12.8067 2.53755 12.8379C2.60375 12.8692 2.67547 12.8871 2.7486 12.8906C2.82173 12.8941 2.89483 12.8831 2.96369 12.8582C3.03256 12.8334 3.09584 12.7952 3.1499 12.7458L7.77478 8.63287L11.5753 11.9215C11.678 12.0105 11.8098 12.0589 11.9458 12.0573C12.0817 12.0557 12.2123 12.0043 12.3129 11.9128L16.5994 8.03415C16.6832 7.96019 16.7428 7.86263 16.7703 7.75424C16.7979 7.64585 16.792 7.53168 16.7536 7.42667C16.7151 7.32165 16.6459 7.23069 16.5549 7.16568C16.4639 7.10068 16.3554 7.06465 16.2436 7.06232Z" fill="#8D8E90"/>
</g>
</svg>
