<svg width="16" height="20" viewBox="0 0 16 20" fill="none" xmlns="http://www.w3.org/2000/svg">
<g id="icon">
<path id="Vector" d="M1.98444 0H11.1915C11.7176 0.000638891 12.2219 0.207641 12.594 0.575602C12.966 0.943564 13.1753 1.44244 13.1759 1.96282V8.32931C13.1759 8.48939 13.1116 8.64291 12.9972 8.7561C12.8827 8.86929 12.7275 8.93288 12.5657 8.93288C12.4038 8.93288 12.2486 8.86929 12.1342 8.7561C12.0197 8.64291 11.9555 8.48939 11.9555 8.32931V1.96282C11.9555 1.7624 11.875 1.57019 11.7317 1.42848C11.5884 1.28676 11.3941 1.20715 11.1915 1.20715H1.98444C1.78181 1.20715 1.58749 1.28676 1.44421 1.42848C1.30093 1.57019 1.22044 1.7624 1.22044 1.96282V15C1.22109 15.2002 1.30179 15.3921 1.44492 15.5336C1.58806 15.6752 1.78201 15.755 1.98444 15.7557H4.79878C4.96062 15.7557 5.11583 15.8193 5.23027 15.9325C5.34471 16.0456 5.409 16.1992 5.409 16.3592C5.409 16.5193 5.34471 16.6728 5.23027 16.786C5.11583 16.8992 4.96062 16.9628 4.79878 16.9628H1.98444C1.45833 16.9622 0.953957 16.7552 0.581942 16.3872C0.209928 16.0193 0.000645928 15.5204 0 15V1.96282C0.000645928 1.44244 0.209928 0.943564 0.581942 0.575602C0.953957 0.207641 1.45833 0.000638891 1.98444 0ZM6.71243 10.4998C6.82754 10.6121 6.98275 10.6751 7.14447 10.6751C7.30619 10.6751 7.4614 10.6121 7.57651 10.4998L9.25339 8.84114V9.0029C9.25847 9.1596 9.32499 9.30821 9.43888 9.41726C9.55278 9.5263 9.7051 9.58724 9.86362 9.58716H9.88314C10.045 9.58086 10.1978 9.51167 10.3084 9.39459C10.419 9.27752 10.4785 9.12202 10.4738 8.96185L10.4177 7.35876C10.4152 7.2796 10.3969 7.2017 10.3638 7.12955C10.3308 7.05741 10.2836 6.99243 10.2251 6.93836C10.1666 6.8843 10.0978 6.8422 10.0228 6.81449C9.94779 6.78679 9.86798 6.77402 9.78795 6.77692L8.16476 6.83003C8.00292 6.83292 7.84886 6.89927 7.73649 7.0145C7.62411 7.12973 7.56261 7.28439 7.56552 7.44447C7.56843 7.60455 7.63552 7.75693 7.75202 7.86808C7.86852 7.97923 8.02489 8.04006 8.18673 8.03718H8.20625H8.3405L7.14447 9.22018L6.09001 8.17721C6.03353 8.12107 5.9664 8.07653 5.89247 8.04613C5.81853 8.01574 5.73926 8.00009 5.65919 8.00009C5.57913 8.00009 5.49985 8.01574 5.42592 8.04613C5.35198 8.07653 5.28485 8.12107 5.22838 8.17721L2.87292 10.5022C2.81472 10.5579 2.76834 10.6246 2.73647 10.6983C2.70459 10.772 2.68788 10.8512 2.68729 10.9313C2.6867 11.0115 2.70226 11.0909 2.73305 11.165C2.76383 11.2392 2.80924 11.3065 2.86661 11.3631C2.92399 11.4197 2.99218 11.4644 3.06722 11.4946C3.14225 11.5249 3.22262 11.54 3.30364 11.5392C3.38466 11.5384 3.46471 11.5217 3.53911 11.4899C3.61352 11.4582 3.68078 11.4121 3.73699 11.3544L5.65553 9.45678L6.71243 10.4998ZM6.09001 3.64558C5.97562 3.5328 5.8207 3.46947 5.65919 3.46947C5.49768 3.46947 5.34276 3.5328 5.22838 3.64558L2.87292 5.97296C2.76192 6.08695 2.70062 6.2395 2.70223 6.39776C2.70384 6.55602 2.76824 6.70732 2.88154 6.81907C2.99484 6.93083 3.14799 6.99409 3.308 6.99524C3.46801 6.99638 3.62207 6.93532 3.73699 6.82521L5.65797 4.92999L6.71243 5.97296C6.82723 6.08589 6.98256 6.14929 7.14447 6.14929C7.30638 6.14929 7.46171 6.08589 7.57651 5.97296L9.25339 4.31434V4.4761C9.25847 4.63281 9.32499 4.78141 9.43888 4.89046C9.55278 4.99951 9.7051 5.06044 9.86362 5.06036H9.88314C9.96329 5.05786 10.0422 5.03976 10.1152 5.0071C10.1883 4.97444 10.2541 4.92785 10.309 4.87001C10.3639 4.81216 10.4067 4.74418 10.4349 4.66996C10.4632 4.59575 10.4764 4.51674 10.4738 4.43747L10.4177 2.83438C10.412 2.67787 10.3453 2.52962 10.2315 2.4207C10.1178 2.31177 9.96581 2.25064 9.80748 2.25012H9.78795L8.16476 2.30565C8.00292 2.30853 7.84886 2.37488 7.73649 2.49011C7.62411 2.60534 7.56261 2.76001 7.56552 2.92009C7.56843 3.08016 7.63552 3.23254 7.75202 3.3437C7.86852 3.45485 8.02489 3.51568 8.18673 3.5128H8.20625H8.33806L7.14447 4.68856L6.09001 3.64558ZM10.1687 14.7513C10.3306 14.7513 10.4858 14.6877 10.6002 14.5745C10.7147 14.4614 10.7789 14.3078 10.7789 14.1478C10.779 14.1073 10.7872 14.0672 10.8032 14.0299C10.8191 13.9925 10.8424 13.9588 10.8717 13.9305C10.9139 13.8894 10.9673 13.8614 11.0253 13.8501C11.0834 13.8387 11.1435 13.8444 11.1983 13.8665C11.2532 13.8886 11.3002 13.9261 11.3337 13.9744C11.3672 14.0226 11.3856 14.0796 11.3867 14.1381C11.388 14.188 11.3769 14.2374 11.3544 14.282C11.3318 14.3267 11.2985 14.3651 11.2574 14.394C10.9848 14.5813 10.7688 14.8383 10.6325 15.1376C10.5915 15.2111 10.5665 15.2921 10.5589 15.3757C10.5514 15.4593 10.5616 15.5434 10.5888 15.6229C10.616 15.7023 10.6596 15.7753 10.7169 15.8371C10.7743 15.899 10.844 15.9483 10.9216 15.982C10.9993 16.0157 11.0832 16.033 11.168 16.0328C11.2528 16.0327 11.3367 16.015 11.4142 15.981C11.4917 15.947 11.5612 15.8973 11.6183 15.8353C11.6753 15.7732 11.7187 15.7 11.7455 15.6205C11.7925 15.5229 11.865 15.4396 11.9555 15.379C12.1626 15.2368 12.3306 15.0458 12.4444 14.8232C12.5581 14.6007 12.6141 14.3536 12.6072 14.1043C12.5915 13.7206 12.4304 13.3567 12.1559 13.0852C11.8813 12.8136 11.5135 12.6543 11.1256 12.6388C10.9218 12.6333 10.7189 12.6683 10.529 12.7417C10.3391 12.8151 10.166 12.9253 10.0199 13.066C9.87381 13.2067 9.75772 13.3749 9.67847 13.5607C9.59922 13.7465 9.55843 13.9461 9.5585 14.1478C9.55818 14.2272 9.57373 14.306 9.60425 14.3795C9.63478 14.453 9.67967 14.5198 9.73637 14.5761C9.79306 14.6324 9.86044 14.6771 9.93464 14.7076C10.0088 14.7381 10.0884 14.7537 10.1687 14.7537V14.7513ZM11.0841 16.2554C10.946 16.2554 10.811 16.2959 10.6962 16.3718C10.5814 16.4477 10.4919 16.5555 10.4391 16.6817C10.3863 16.8078 10.3724 16.9467 10.3994 17.0806C10.4263 17.2146 10.4928 17.3376 10.5904 17.4342C10.6881 17.5307 10.8124 17.5965 10.9479 17.6231C11.0833 17.6498 11.2236 17.6361 11.3512 17.5838C11.4788 17.5316 11.5878 17.4431 11.6645 17.3295C11.7412 17.216 11.7822 17.0825 11.7822 16.9459C11.7809 16.7634 11.7068 16.5888 11.5761 16.4599C11.4454 16.3311 11.2686 16.2585 11.0841 16.2578V16.2554ZM6.16812 15.14C6.16763 14.1782 6.45554 13.2379 6.99541 12.438C7.53529 11.638 8.30289 11.0144 9.20112 10.6461C10.0993 10.2777 11.0879 10.181 12.0416 10.3684C12.9954 10.5557 13.8715 11.0186 14.5593 11.6985C15.247 12.3785 15.7155 13.2448 15.9054 14.1881C16.0952 15.1314 15.998 16.1092 15.626 16.9978C15.254 17.8864 14.6239 18.646 13.8155 19.1804C13.007 19.7148 12.0564 20 11.0841 20C9.78109 19.9987 8.53182 19.4864 7.61025 18.5753C6.68868 17.6642 6.17005 16.4288 6.16812 15.14ZM7.38856 15.14C7.38807 15.8631 7.6044 16.57 8.01018 17.1714C8.41595 17.7728 8.99294 18.2417 9.66816 18.5187C10.3434 18.7958 11.0865 18.8685 11.8035 18.7277C12.5205 18.587 13.1792 18.239 13.6963 17.7279C14.2134 17.2168 14.5656 16.5655 14.7084 15.8564C14.8512 15.1473 14.7781 14.4122 14.4985 13.7442C14.2189 13.0762 13.7452 12.5051 13.1374 12.1034C12.5296 11.7016 11.8151 11.4872 11.0841 11.4872C10.1046 11.4878 9.16535 11.8728 8.47252 12.5577C7.77969 13.2425 7.38985 14.1712 7.38856 15.14Z" fill="#8D8E90"/>
</g>
</svg>
