<svg width="22" height="22" viewBox="0 0 22 22" fill="none" xmlns="http://www.w3.org/2000/svg">
<g id="icon">
<path id="Vector" d="M6.38466 7.15385C8.084 7.15385 9.46159 5.77626 9.46159 4.07692C9.46159 2.37758 8.084 1 6.38466 1C4.68532 1 3.30774 2.37758 3.30774 4.07692C3.30774 5.77626 4.68532 7.15385 6.38466 7.15385Z" stroke="#8D8E90" stroke-width="1.5" stroke-linecap="round" stroke-linejoin="round"/>
<path id="Vector_2" d="M8.97905 16.4223L8.40685 21H4.38041L3.61117 14.8461H1V12.5385C1 11.1104 1.56731 9.74076 2.57711 8.73096C3.58693 7.72115 4.95653 7.15384 6.38462 7.15384C7.8127 7.15384 9.1823 7.72115 10.1921 8.73096C10.9688 9.50765 11.4837 10.4972 11.6801 11.5625" stroke="#8D8E90" stroke-width="1.5" stroke-linecap="round" stroke-linejoin="round"/>
<path id="Vector_3" d="M11.4087 15.57C11.4087 14.8203 12.0165 14.2125 12.7662 14.2125H19.5536C20.3033 14.2125 20.911 14.8203 20.911 15.57V19.6425C20.911 20.3922 20.3033 20.9999 19.5536 20.9999H12.7662C12.0165 20.9999 11.4087 20.3922 11.4087 19.6425V15.57Z" stroke="#8D8E90" stroke-width="1.5" stroke-linecap="round" stroke-linejoin="round"/>
<path id="Vector_4" d="M14.3022 14.2126V13.2112C14.3022 12.3615 14.991 11.6727 15.8407 11.6727H16.4755C17.325 11.6727 18.014 12.3615 18.014 13.2112V14.2126" stroke="#8D8E90" stroke-width="1.5" stroke-linecap="round" stroke-linejoin="round"/>
</g>
</svg>
