<svg width="25" height="20" viewBox="0 0 25 20" fill="none" xmlns="http://www.w3.org/2000/svg">
<g id="icon">
<path id="Vector" d="M24.6363 7.76413C24.639 7.36072 24.5335 6.96396 24.3308 6.61518C24.128 6.2664 23.8355 5.97837 23.4836 5.78109L14.1997 0.495788C13.6257 0.170806 12.9773 0 12.3176 0C11.658 0 11.0096 0.170806 10.4356 0.495788L1.1529 5.7817C0.802841 5.98097 0.511776 6.26935 0.309281 6.61755C0.106786 6.96574 7.72978e-05 7.36134 4.19792e-08 7.76413C-7.72138e-05 8.16693 0.106479 8.56257 0.308841 8.91084C0.511203 9.25912 0.802156 9.54761 1.15213 9.74701L4.26807 11.5212V14.7483C4.26691 15.3315 4.4001 15.907 4.65733 16.4303C4.91455 16.9537 5.28888 17.4107 5.75128 17.766C7.63372 19.2147 9.94242 20.0001 12.3178 20C14.6931 19.9999 17.0017 19.2141 18.884 17.7652C19.3464 17.4102 19.7208 16.9533 19.9781 16.4301C20.2353 15.9068 20.3685 15.3314 20.3672 14.7483V11.5212L22.1222 10.522V17.6341C22.1222 17.8358 22.2024 18.0293 22.345 18.1719C22.4876 18.3145 22.6811 18.3947 22.8828 18.3947C23.0845 18.3947 23.2779 18.3145 23.4206 18.1719C23.5632 18.0293 23.6433 17.8358 23.6433 17.6341V9.62593C23.949 9.42098 24.1994 9.14392 24.3726 8.81921C24.5458 8.4945 24.6364 8.13213 24.6363 7.76413ZM1.52008 7.76413C1.51854 7.62956 1.55341 7.49709 1.62099 7.38071C1.68857 7.26434 1.78636 7.16841 1.90401 7.10306L11.1887 1.81776C11.5329 1.62255 11.9219 1.51993 12.3176 1.51993C12.7134 1.51993 13.1023 1.62255 13.4466 1.81776L22.7313 7.10367C22.8479 7.17015 22.9448 7.26628 23.0122 7.38232C23.0796 7.49835 23.1151 7.63016 23.1151 7.76436C23.1151 7.89855 23.0796 8.03036 23.0122 8.14639C22.9448 8.26243 22.8479 8.35857 22.7313 8.42504L13.4466 13.7116C13.1023 13.9065 12.7133 14.009 12.3176 14.009C11.922 14.009 11.533 13.9065 11.1887 13.7116L1.90401 8.42504C1.78636 8.35973 1.68857 8.26383 1.62099 8.14748C1.5534 8.03113 1.51854 7.89867 1.52008 7.76413ZM18.8461 14.7485C18.8466 15.0992 18.7662 15.4454 18.6112 15.7601C18.4563 16.0747 18.2309 16.3495 17.9526 16.563C16.3368 17.8052 14.3558 18.4787 12.3176 18.4787C10.2795 18.4787 8.29847 17.8052 6.68264 16.563C6.40439 16.3493 6.17907 16.0744 6.02413 15.7596C5.86919 15.4448 5.78879 15.0986 5.78915 14.7477V12.3882L10.4356 15.0337C11.0097 15.3584 11.6581 15.5291 12.3176 15.5291C12.9772 15.5291 13.6256 15.3584 14.1997 15.0337L18.8461 12.3879V14.7485Z" fill="#8D8E90"/>
</g>
</svg>
