<svg width="25" height="18" viewBox="0 0 25 18" fill="none" xmlns="http://www.w3.org/2000/svg">
<g id="icon">
<g id="Group 29">
<path id="Vector" d="M19.5 4.50002H10.5C10.2239 4.50002 10 4.72388 10 5.00002V7.00002C10 7.27612 10.2239 7.50002 10.5 7.50002H19.5C19.7761 7.50002 20 7.27612 20 7.00002V5.00002C20 4.72388 19.7761 4.50002 19.5 4.50002Z" stroke="#8D8E90" stroke-width="1.2" stroke-linecap="round" stroke-linejoin="round"/>
<path id="Vector_2" d="M12 11.5H15" stroke="#8D8E90" stroke-width="1.2" stroke-linecap="round" stroke-linejoin="round"/>
<path id="Vector_3" d="M10 13.5H15" stroke="#8D8E90" stroke-width="1.2" stroke-linecap="round" stroke-linejoin="round"/>
<path id="Vector_4" d="M18.5 14C19.3284 14 20 13.3284 20 12.5C20 11.6716 19.3284 11 18.5 11C17.6716 11 17 11.6716 17 12.5C17 13.3284 17.6716 14 18.5 14Z" stroke="#8D8E90" stroke-width="1.2" stroke-linecap="round" stroke-linejoin="round"/>
<path id="Vector_5" d="M22 9C21.9906 8.5321 22.1455 8.0757 22.4379 7.7103C22.7302 7.3448 23.1414 7.0935 23.6 7C23.7129 6.97695 23.8144 6.91558 23.8873 6.82629C23.9602 6.737 24 6.62527 24 6.51V2.5C24 2.23478 23.8946 1.98043 23.7071 1.79289C23.5196 1.60536 23.2652 1.5 23 1.5H2C1.73478 1.5 1.48043 1.60536 1.29289 1.79289C1.10536 1.98043 1 2.23478 1 2.5V6.55C1.00874 6.65828 1.0525 6.76076 1.12467 6.84196C1.19684 6.92315 1.29349 6.97863 1.4 7C1.93043 7 2.43914 7.2107 2.81421 7.5858C3.18929 7.9609 3.4 8.4696 3.4 9C3.4 9.5304 3.18929 10.0391 2.81421 10.4142C2.43914 10.7893 1.93043 11 1.4 11C1.28706 11.0231 1.18556 11.0844 1.11267 11.1737C1.03978 11.263 0.999976 11.3747 1 11.49V15.5C1 15.7652 1.10536 16.0196 1.29289 16.2071C1.48043 16.3946 1.73478 16.5 2 16.5H23C23.2652 16.5 23.5196 16.3946 23.7071 16.2071C23.8946 16.0196 24 15.7652 24 15.5V11.45C24 11.3347 23.9602 11.223 23.8873 11.1337C23.8144 11.0444 23.7129 10.9831 23.6 10.96C23.1483 10.8678 22.7422 10.6223 22.4507 10.2652C22.1591 9.908 21.9999 9.4611 22 9Z" stroke="#8D8E90" stroke-width="1.2" stroke-linecap="round" stroke-linejoin="round"/>
<path id="Vector_6" d="M5.75 4C5.61193 4 5.5 3.88807 5.5 3.75C5.5 3.61193 5.61193 3.5 5.75 3.5" stroke="#8D8E90" stroke-width="1.2"/>
<path id="Vector_7" d="M5.75 4C5.88807 4 6 3.88807 6 3.75C6 3.61193 5.88807 3.5 5.75 3.5" stroke="#8D8E90" stroke-width="1.2"/>
<g id="Group">
<path id="Vector_8" d="M5.75 6.49998C5.61193 6.49998 5.5 6.38805 5.5 6.24998C5.5 6.11191 5.61193 5.99998 5.75 5.99998" stroke="#8D8E90" stroke-width="1.2"/>
<path id="Vector_9" d="M5.75 6.49997C5.88807 6.49997 6 6.38804 6 6.24997C6 6.1119 5.88807 5.99997 5.75 5.99997" stroke="#8D8E90" stroke-width="1.2"/>
</g>
<g id="Group_2">
<path id="Vector_10" d="M5.75 9C5.61193 9 5.5 8.8881 5.5 8.75C5.5 8.6119 5.61193 8.5 5.75 8.5" stroke="#8D8E90" stroke-width="1.2"/>
<path id="Vector_11" d="M5.75 9C5.88807 9 6 8.8881 6 8.75C6 8.6119 5.88807 8.5 5.75 8.5" stroke="#8D8E90" stroke-width="1.2"/>
</g>
<g id="Group_3">
<path id="Vector_12" d="M5.75 11.5C5.61193 11.5 5.5 11.3881 5.5 11.25C5.5 11.1119 5.61193 11 5.75 11" stroke="#8D8E90" stroke-width="1.2"/>
<path id="Vector_13" d="M5.75 11.5C5.88807 11.5 6 11.3881 6 11.25C6 11.1119 5.88807 11 5.75 11" stroke="#8D8E90" stroke-width="1.2"/>
</g>
<g id="Group_4">
<path id="Vector_14" d="M5.75 14C5.61193 14 5.5 13.8881 5.5 13.75C5.5 13.6119 5.61193 13.5 5.75 13.5" stroke="#8D8E90" stroke-width="1.2"/>
<path id="Vector_15" d="M5.75 14C5.88807 14 6 13.8881 6 13.75C6 13.6119 5.88807 13.5 5.75 13.5" stroke="#8D8E90" stroke-width="1.2"/>
</g>
</g>
</g>
</svg>
