<svg width="18" height="24" viewBox="0 0 18 24" fill="none" xmlns="http://www.w3.org/2000/svg">
<g id="icon">
<g id="Group">
<path id="Vector" d="M0.514286 0.428574C0.245006 0.428599 2.57143e-05 0.673587 0 0.942859V23.0571C0 23.3109 0.230991 23.5707 0.514286 23.5714H17.4857C17.755 23.5714 18 23.3264 18 23.0571V4.54286C18 4.40862 17.9428 4.27564 17.8473 4.18125L14.2473 0.581252C14.1529 0.485796 14.0199 0.429602 13.8857 0.428574H0.514286ZM1.02857 1.45714H13.3714V4.54286C13.3748 4.78156 13.5732 5.05663 13.8857 5.05714H16.9714V22.5429H1.02857V1.45714ZM14.4 2.18839L16.2402 4.02857H14.4V2.18839ZM2.57143 3C2.29248 2.99987 2.05779 3.27694 2.05714 3.51429V7.11429C2.05717 7.38357 2.30215 7.62855 2.57143 7.62857H7.2C7.46928 7.62855 7.71426 7.38357 7.71429 7.11429V3.51429C7.71426 3.24501 7.46928 3.00003 7.2 3H2.57143ZM3.08571 4.02857H6.68571V6.6H3.08571V4.02857ZM9.25714 4.8C8.9731 4.8 8.74286 5.03025 8.74286 5.31429C8.74286 5.59833 8.9731 5.82857 9.25714 5.82857H12.3429C12.6269 5.82857 12.8571 5.59833 12.8571 5.31429C12.8571 5.03025 12.6269 4.8 12.3429 4.8H9.25714ZM8.18036 8.64911C8.02965 8.66359 7.88714 8.74846 7.80269 8.87411L5.77769 11.7991L4.66071 11.0518C4.43561 10.9003 4.08898 10.9633 3.9375 11.1884C3.78604 11.4135 3.85704 11.7601 4.08214 11.9116L5.625 12.9402C5.84792 13.0919 6.18891 13.0268 6.34017 12.8036L8.65445 9.46072C8.76983 9.30034 8.77821 9.06881 8.67862 8.89822C8.57898 8.72762 8.37674 8.62737 8.18036 8.64911ZM2.57143 9.17143C2.29315 9.18017 2.05642 9.44904 2.05714 9.68572V14.3143C2.05717 14.5836 2.30215 14.8285 2.57143 14.8286H7.2C7.46928 14.8285 7.71426 14.5836 7.71429 14.3143V13.8C7.71814 13.5283 7.47172 13.2777 7.2 13.2777C6.92828 13.2777 6.68188 13.5283 6.68571 13.8H3.08571V10.2H5.65714C5.92884 10.2039 6.17945 9.95744 6.17945 9.68572C6.17945 9.41399 5.92884 9.1676 5.65714 9.17143H2.57143ZM9.25714 11.4857C8.9731 11.4857 8.74286 11.716 8.74286 12C8.74286 12.284 8.9731 12.5143 9.25714 12.5143H15.4286C15.7126 12.5143 15.9429 12.284 15.9429 12C15.9429 11.716 15.7126 11.4857 15.4286 11.4857H9.25714ZM2.57143 16.3714C2.29248 16.3713 2.05779 16.6484 2.05714 16.8857V20.4857C2.05717 20.755 2.30215 21 2.57143 21H7.2C7.46928 21 7.71426 20.755 7.71429 20.4857V16.8857C7.71426 16.6164 7.46928 16.3715 7.2 16.3714H2.57143ZM3.08571 17.4H6.68571V19.9714H3.08571V17.4ZM9.25714 18.1714C8.9731 18.1714 8.74286 18.4017 8.74286 18.6857C8.74286 18.9698 8.9731 19.2 9.25714 19.2H15.4286C15.7126 19.2 15.9429 18.9698 15.9429 18.6857C15.9429 18.4017 15.7126 18.1714 15.4286 18.1714H9.25714Z" fill="#8D8E90"/>
</g>
</g>
</svg>
